inDegrees=no
num_controls=7
num_derivatives=13
num_iterations=51
num_multipliers=7
num_parameters=0
num_slacks=7
num_states=26
objective=0.380897
objective_accelerations=0.046367
objective_balance=0.007817
objective_effort=0.039583
objective_height=0.285495
objective_ligament=0.001634
solver_duration=664.218484
status=Solve_Succeeded
success=true
DataType=double
version=3
OpenSimVersion=4.5
endheader
time	/jointset/ground_pelvis/pelvis_tilt/value	/jointset/ground_pelvis/pelvis_tx/value	/jointset/ground_pelvis/pelvis_ty/value	/jointset/hip_l/hip_flexion_l/value	/jointset/hip_l/hip_adduction_l/value	/jointset/hip_l/hip_rotation_l/value	/jointset/back/lumbar_extension/value	/jointset/patellofemoral_l/patellar_flexion_l/value	/jointset/knee_l/knee_flexion_l/value	/jointset/knee_l/knee_adduction_l/value	/jointset/knee_l/knee_rotation_l/value	/jointset/ankle_l/ankle_angle_l/value	/jointset/subtalar_l/subtalar_angle_l/value	/jointset/ground_pelvis/pelvis_tilt/speed	/jointset/ground_pelvis/pelvis_tx/speed	/jointset/ground_pelvis/pelvis_ty/speed	/jointset/hip_l/hip_flexion_l/speed	/jointset/hip_l/hip_adduction_l/speed	/jointset/hip_l/hip_rotation_l/speed	/jointset/back/lumbar_extension/speed	/jointset/patellofemoral_l/patellar_flexion_l/speed	/jointset/knee_l/knee_flexion_l/speed	/jointset/knee_l/knee_adduction_l/speed	/jointset/knee_l/knee_rotation_l/speed	/jointset/ankle_l/ankle_angle_l/speed	/jointset/subtalar_l/subtalar_angle_l/speed	/forceset/tau_hip_flexion_l	/forceset/tau_hip_adduction_l	/forceset/tau_hip_rotation_l	/forceset/tau_knee_flexion_l	/forceset/tau_ankle_angle_l	/forceset/tau_subtalar_angle_l	/forceset/tau_lumbar_extension	lambda_cid13_p0	lambda_cid13_p1	lambda_cid13_p2	lambda_cid13_p3	lambda_cid13_p4	lambda_cid13_p5	lambda_cid14_p0	/jointset/ground_pelvis/pelvis_tilt/accel	/jointset/ground_pelvis/pelvis_tx/accel	/jointset/ground_pelvis/pelvis_ty/accel	/jointset/hip_l/hip_flexion_l/accel	/jointset/hip_l/hip_adduction_l/accel	/jointset/hip_l/hip_rotation_l/accel	/jointset/back/lumbar_extension/accel	/jointset/patellofemoral_l/patellar_flexion_l/accel	/jointset/knee_l/knee_flexion_l/accel	/jointset/knee_l/knee_adduction_l/accel	/jointset/knee_l/knee_rotation_l/accel	/jointset/ankle_l/ankle_angle_l/accel	/jointset/subtalar_l/subtalar_angle_l/accel	gamma_cid13_p0	gamma_cid13_p1	gamma_cid13_p2	gamma_cid13_p3	gamma_cid13_p4	gamma_cid13_p5	gamma_cid14_p0
1	-0.1791294168550594	-0.01693453879414269	0.3975655166432939	2.094393578457002	-0.2347614262940053	0.1061093406840229	-0.4363244042547947	2.094326509540162	2.094326509540198	0.1745324591878262	0.1743756539462238	0.4363314771928535	0.1479510286822965	-0.009649764601605831	4.421652627490775e-05	0.0007231994124252621	0.005145010094624412	-0.000615371157951508	-0.003048055545545928	0.0001771163665143858	-0.004512149486000303	-0.00451214948600017	0.001047233019632888	0.0001235717858262843	-0.0003078282964317353	-0.001079089685088491	-0.1205823406312576	0.01531032231081931	-0.07001359882158371	-0.5746297624328485	0.1697606924767956	-0.005158512776054136	0.1646459259901319	5.838835935677261	15.45788922571765	-19.13220293545416	5.828438450902276	-715.6490503189481	-46.60153666485984	-0.02205979285892294	-2.511454427831471	-0.6044093276928137	1.531954465349772	-2.441512903062241	-0.0462663556238237	-1.304640734877462	0.3281211771809466	-5.210281344541478	-5.210281344541333	-0.3250563077775317	-0.2659408773785751	-0.5275265678695279	-0.2687097677114939	6.056778889270816e-09	-1.409398646195607e-08	-1.798496382801186e-08	-1.510136111479304e-08	-7.22652567214941e-09	-7.374900309608937e-08	3.783194927115297e-09
1.01	-0.1793479136409503	-0.01696405413470321	0.3976503180239218	2.094316359063147	-0.2347697262529344	0.1060167628239503	-0.4363090184838415	2.094019890391614	2.094019890391579	0.1745237913403827	0.1743640497387905	0.4363042629928433	0.1479280452884132	-0.03378437256727652	-0.005924440131257538	0.01632118341047909	-0.02110162930709271	-0.001084751449921876	-0.01534081264849237	0.002719463511485053	-0.05691411537331263	-0.05691411537331271	-0.002945962920010223	-0.002341666798216447	-0.00497961036888735	-0.003515832335470134	-0.1224108364927194	0.01526704600544675	-0.0699962191111949	-0.5751490582907677	0.1693041156805161	-0.005150907292982921	0.1662139880338515	5.581441813591229	15.50969980882715	-19.15193764328793	5.764043211841816	-717.5386783005905	-46.63591277235027	-0.02199423473716504	-2.32468005723998	-0.5896513488792995	1.586341962161022	-2.793150101767889	-0.05329286994767664	-1.172594269256886	0.1902053352605059	-5.270518429611801	-5.27051842961185	-0.4612342248472691	-0.2214075018074506	-0.4136988779817405	-0.2308929329320311	-2.695810814679264e-08	9.525409296839549e-10	3.246065421245776e-09	7.810077850463754e-08	2.760074799446143e-08	9.414051628771739e-08	-5.171899795439657e-09
1.02	-0.1797997997217525	-0.01705256754465738	0.3978936235635565	2.093961291146452	-0.2347839238155743	0.1058050571785965	-0.4362736264711239	2.093186178740437	2.093186178740277	0.1744702349363354	0.174330874714911	0.4362349920015456	0.1478807471841797	-0.05632762358517308	-0.01175539735245468	0.03242403121377066	-0.05042469443046748	-0.001794891900467671	-0.02687361260159063	0.004178364740639707	-0.1099306500120374	-0.1099306500120383	-0.00793047837123453	-0.004190591497859813	-0.008719186483251479	-0.005942031755078341	-0.1242393323541202	0.01522376970011237	-0.06997883940057829	-0.5756683541486931	0.1688475388842273	-0.005143301809856564	0.1677820500776298	5.32418921937836	15.56431047890563	-19.17534550811721	5.764812473741035	-719.3858782442604	-46.63367547133223	-0.02198856170084257	-2.193183038277315	-0.5768694404252553	1.63292722639733	-3.056798047393904	-0.09441838733935329	-1.152649304907917	0.1114319940168198	-5.333195094823523	-5.333195094823514	-0.5233202100938281	-0.1426781004981336	-0.3410853762499199	-0.2666011215569435	-2.007162763243867e-08	-5.049008026282576e-08	-5.870134424668628e-08	8.064088783789113e-08	1.362433377442132e-08	-1.911004600383289e-07	1.324150802955101e-08
1.03	-0.1804703339974829	-0.01719890505327215	0.3983007870204351	2.093297952955717	-0.2348062806794153	0.1054815240567783	-0.436228271053549	2.091817814519472	2.09181781451949	0.1743618664086813	0.174282067852783	0.436132315284639	0.1478091888089018	-0.0776189507910048	-0.01750864905866068	0.04912454836728157	-0.08273385563057195	-0.00270061397768463	-0.03781264542266091	0.004778429498723444	-0.1639807667994702	-0.1639807667994718	-0.01383600001034731	-0.005526092975617742	-0.01172545223636194	-0.008367298668416356	-0.1264227380277411	0.01550743907240477	-0.06996711802730733	-0.5775217909161977	0.1686740074400105	-0.005222360001052933	0.1696756690288686	5.052161422142158	15.69485511800487	-19.25164735956012	6.018348922185661	-722.5591408240858	-46.70963861177021	-0.02202335588263564	-2.073059580804481	-0.5740182772364787	1.705996932953673	-3.391607143214925	-0.09225022268161413	-1.061470779908585	0.01715032204402219	-5.476712363019608	-5.476712363019598	-0.6380606337524705	-0.1222394175625488	-0.2667978402724224	-0.2301061495082655	-1.277799030634552e-08	-1.026111621551741e-07	-1.214975134954065e-07	8.225587441312196e-08	-8.500772607889829e-10	-4.809652169328456e-07	3.193418628870047e-08
1.04	-0.1813489719490816	-0.01740266812725194	0.3988784322434746	2.092296796755592	-0.2348384149849814	0.1050492125049058	-0.4361803436672638	2.089901790652169	2.08990179065235	0.1741916641660773	0.1742212553266021	0.436002295777022	0.1477134544298331	-0.09794835875958556	-0.02324051042546136	0.06652038444594566	-0.1179882963065224	-0.003750380245656831	-0.04862929861181708	0.004692758470382193	-0.21946257927955	-0.2194625792795503	-0.02029722136675672	-0.006591724299284822	-0.01418774460669458	-0.01077723251320013	-0.1286061437013306	0.01579110844470722	-0.06995539665390156	-0.579375227683706	0.1685004759957847	-0.005301418192238706	0.1715692879801327	4.781149967575612	15.82657722235212	-19.32968532380941	6.327295976122707	-725.6849846566668	-46.75661761925583	-0.02211842513284484	-2.000799190827421	-0.5725913725439268	1.771991011427989	-3.645853942563294	-0.1232272254906873	-1.128173378525311	-0.02571516326903304	-5.619534233352692	-5.619534233352333	-0.6344601535530707	-0.08870406967963218	-0.2322906996936465	-0.2635345078462408	-5.064531914457169e-10	-1.574579596657971e-07	-1.916869127957792e-07	6.794800651808324e-08	-2.083124072622925e-08	-7.658892545004145e-07	4.969641442350872e-08
1.05	-0.1824264157941701	-0.01766358398310097	0.3996334609669883	2.090928968768883	-0.2348816611414453	0.1045096257801866	-0.4361357048476955	2.087423808901559	2.087423808901741	0.173953914373235	0.1741511057379654	0.4358501209809796	0.1475937524698205	-0.1174028364975257	-0.02893251780472787	0.08459705118359619	-0.1560167947430643	-0.004914891385778824	-0.05928739017812455	0.004210772202374938	-0.276367850786672	-0.2763678507866705	-0.02731814821495503	-0.007410569569374031	-0.01618186478902121	-0.01315822175995791	-0.1316200993191839	0.01613095750256974	-0.06983697476289209	-0.5807993959769253	0.1676971708451863	-0.005305344314399754	0.1741165056531456	4.303804795180774	15.94465825659048	-19.38597175096531	6.732260453156962	-728.9973517637612	-46.78916953334972	-0.02223660344239615	-1.897125711756351	-0.565973500199846	1.842249743551069	-3.947262974235908	-0.1154302130302718	-1.034514888606022	-0.06307534701114301	-5.761149265695056	-5.761149265694967	-0.7456663934736631	-0.07423717897160255	-0.1731764406420218	-0.2245747710280888	1.192064329185427e-08	-2.123899357894912e-07	-2.621073505352659e-07	5.314254942084868e-08	-4.098449020511418e-08	-1.050658894589016e-06	6.742956599193131e-08
